<?xml version="1.0" encoding="UTF-8" standalone="no"?>
<!DOCTYPE svg PUBLIC "-//W3C//DTD SVG 1.1//EN"
 "http://www.w3.org/Graphics/SVG/1.1/DTD/svg11.dtd">
<!-- Generated by graphviz version 2.43.0 (0)
 -->
<!-- Title: StatTest Pages: 1 -->
<svg width="1056pt" height="1801pt"
 viewBox="0.00 0.00 1056.00 1801.00" xmlns="http://www.w3.org/2000/svg" xmlns:xlink="http://www.w3.org/1999/xlink">
<g id="graph0" class="graph" transform="scale(1 1) rotate(0) translate(4 1797)">
<title>StatTest</title>
<polygon fill="white" stroke="transparent" points="-4,4 -4,-1797 1052,-1797 1052,4 -4,4"/>
<text text-anchor="start" x="247.5" y="-1772.4" font-family="Helvetica,sans-Serif" font-weight="bold" font-size="22.00">Choosing a Statistical Test — A Decision Map</text>
<text text-anchor="start" x="8" y="-1759.2" font-family="Helvetica,sans-Serif" font-size="11.00">Start at the left. Pick your goal, then follow your data’s features to a recommended test. Italic fallbacks are non&#45;parametric (use when data are skewed/ordinal). See the guide for details.</text>
<!-- ROOT -->
<g id="node1" class="node">
<title>ROOT</title>
<path fill="#1f2933" stroke="black" stroke-width="2" d="M214.5,-847C214.5,-847 120.5,-847 120.5,-847 114.5,-847 108.5,-841 108.5,-835 108.5,-835 108.5,-805 108.5,-805 108.5,-799 114.5,-793 120.5,-793 120.5,-793 214.5,-793 214.5,-793 220.5,-793 226.5,-799 226.5,-805 226.5,-805 226.5,-835 226.5,-835 226.5,-841 220.5,-847 214.5,-847"/>
<text text-anchor="middle" x="167.5" y="-830.6" font-family="Helvetica,sans-Serif" font-size="13.00" fill="white">START</text>
<text text-anchor="middle" x="167.5" y="-816.6" font-family="Helvetica,sans-Serif" font-size="13.00" fill="white">What is your</text>
<text text-anchor="middle" x="167.5" y="-802.6" font-family="Helvetica,sans-Serif" font-size="13.00" fill="white">research goal?</text>
</g>
<!-- g1 -->
<g id="node2" class="node">
<title>g1</title>
<path fill="#a51c30" stroke="#a51c30" d="M478,-1676C478,-1676 328,-1676 328,-1676 322,-1676 316,-1670 316,-1664 316,-1664 316,-1648 316,-1648 316,-1642 322,-1636 328,-1636 328,-1636 478,-1636 478,-1636 484,-1636 490,-1642 490,-1648 490,-1648 490,-1664 490,-1664 490,-1670 484,-1676 478,-1676"/>
<text text-anchor="middle" x="403" y="-1660" font-family="Helvetica,sans-Serif" font-size="12.50" fill="white">Compare a sample</text>
<text text-anchor="middle" x="403" y="-1646" font-family="Helvetica,sans-Serif" font-size="12.50" fill="white">to a baseline (1 sample)</text>
</g>
<!-- ROOT&#45;&gt;g1 -->
<g id="edge1" class="edge">
<title>ROOT&#45;&gt;g1</title>
<path fill="none" stroke="#a51c30" stroke-width="1.6" d="M170.63,-847.29C178.69,-941.34 211.84,-1259.48 307.5,-1502 326.52,-1550.22 360.36,-1600.35 381.96,-1629.84"/>
<polygon fill="#a51c30" stroke="#a51c30" stroke-width="1.6" points="380.25,-1631.64 386.38,-1635.81 384.19,-1628.73 380.25,-1631.64"/>
</g>
<!-- g2 -->
<g id="node6" class="node">
<title>g2</title>
<path fill="#1c6dd0" stroke="#1c6dd0" d="M439.5,-1494C439.5,-1494 366.5,-1494 366.5,-1494 360.5,-1494 354.5,-1488 354.5,-1482 354.5,-1482 354.5,-1466 354.5,-1466 354.5,-1460 360.5,-1454 366.5,-1454 366.5,-1454 439.5,-1454 439.5,-1454 445.5,-1454 451.5,-1460 451.5,-1466 451.5,-1466 451.5,-1482 451.5,-1482 451.5,-1488 445.5,-1494 439.5,-1494"/>
<text text-anchor="middle" x="403" y="-1478" font-family="Helvetica,sans-Serif" font-size="12.50" fill="white">Compare</text>
<text text-anchor="middle" x="403" y="-1464" font-family="Helvetica,sans-Serif" font-size="12.50" fill="white">TWO groups</text>
</g>
<!-- ROOT&#45;&gt;g2 -->
<g id="edge5" class="edge">
<title>ROOT&#45;&gt;g2</title>
<path fill="none" stroke="#1c6dd0" stroke-width="1.6" d="M177.98,-847.41C200.28,-911.82 257.94,-1077.8 307.5,-1216 337.83,-1300.56 374.68,-1400.34 392.04,-1447.18"/>
<polygon fill="#1c6dd0" stroke="#1c6dd0" stroke-width="1.6" points="389.82,-1448.25 394.56,-1453.96 394.42,-1446.55 389.82,-1448.25"/>
</g>
<!-- g3 -->
<g id="node11" class="node">
<title>g3</title>
<path fill="#1c6dd0" stroke="#1c6dd0" d="M451.5,-1208C451.5,-1208 354.5,-1208 354.5,-1208 348.5,-1208 342.5,-1202 342.5,-1196 342.5,-1196 342.5,-1180 342.5,-1180 342.5,-1174 348.5,-1168 354.5,-1168 354.5,-1168 451.5,-1168 451.5,-1168 457.5,-1168 463.5,-1174 463.5,-1180 463.5,-1180 463.5,-1196 463.5,-1196 463.5,-1202 457.5,-1208 451.5,-1208"/>
<text text-anchor="middle" x="403" y="-1192" font-family="Helvetica,sans-Serif" font-size="12.50" fill="white">Compare</text>
<text text-anchor="middle" x="403" y="-1178" font-family="Helvetica,sans-Serif" font-size="12.50" fill="white">THREE+ groups</text>
</g>
<!-- ROOT&#45;&gt;g3 -->
<g id="edge10" class="edge">
<title>ROOT&#45;&gt;g3</title>
<path fill="none" stroke="#1c6dd0" stroke-width="1.6" d="M185.67,-847.06C229.03,-915.4 342.54,-1094.3 385.34,-1161.75"/>
<polygon fill="#1c6dd0" stroke="#1c6dd0" stroke-width="1.6" points="383.44,-1163.33 389.26,-1167.92 387.58,-1160.7 383.44,-1163.33"/>
</g>
<!-- g4 -->
<g id="node19" class="node">
<title>g4</title>
<path fill="#2b8a3e" stroke="#2b8a3e" d="M443.5,-922C443.5,-922 362.5,-922 362.5,-922 356.5,-922 350.5,-916 350.5,-910 350.5,-910 350.5,-894 350.5,-894 350.5,-888 356.5,-882 362.5,-882 362.5,-882 443.5,-882 443.5,-882 449.5,-882 455.5,-888 455.5,-894 455.5,-894 455.5,-910 455.5,-910 455.5,-916 449.5,-922 443.5,-922"/>
<text text-anchor="middle" x="403" y="-906" font-family="Helvetica,sans-Serif" font-size="12.50" fill="white">Measure an</text>
<text text-anchor="middle" x="403" y="-892" font-family="Helvetica,sans-Serif" font-size="12.50" fill="white">ASSOCIATION</text>
</g>
<!-- ROOT&#45;&gt;g4 -->
<g id="edge18" class="edge">
<title>ROOT&#45;&gt;g4</title>
<path fill="none" stroke="#2b8a3e" stroke-width="1.6" d="M226.52,-840.38C262.1,-852.87 307.52,-868.82 343.24,-881.36"/>
<polygon fill="#2b8a3e" stroke="#2b8a3e" stroke-width="1.6" points="342.83,-883.82 350.25,-883.83 344.46,-879.19 342.83,-883.82"/>
</g>
<!-- g5 -->
<g id="node24" class="node">
<title>g5</title>
<path fill="#b5651d" stroke="#b5651d" d="M454,-737C454,-737 352,-737 352,-737 346,-737 340,-731 340,-725 340,-725 340,-709 340,-709 340,-703 346,-697 352,-697 352,-697 454,-697 454,-697 460,-697 466,-703 466,-709 466,-709 466,-725 466,-725 466,-731 460,-737 454,-737"/>
<text text-anchor="middle" x="403" y="-721" font-family="Helvetica,sans-Serif" font-size="12.50" fill="white">PREDICT / model</text>
<text text-anchor="middle" x="403" y="-707" font-family="Helvetica,sans-Serif" font-size="12.50" fill="white">an outcome</text>
</g>
<!-- ROOT&#45;&gt;g5 -->
<g id="edge23" class="edge">
<title>ROOT&#45;&gt;g5</title>
<path fill="none" stroke="#b5651d" stroke-width="1.6" d="M226.52,-794.41C264.28,-777.75 313.13,-756.2 349.7,-740.07"/>
<polygon fill="#b5651d" stroke="#b5651d" stroke-width="1.6" points="350.96,-742.19 356.38,-737.12 348.99,-737.71 350.96,-742.19"/>
</g>
<!-- g6 -->
<g id="node30" class="node">
<title>g6</title>
<path fill="#6741d9" stroke="#6741d9" d="M486.5,-454C486.5,-454 319.5,-454 319.5,-454 313.5,-454 307.5,-448 307.5,-442 307.5,-442 307.5,-426 307.5,-426 307.5,-420 313.5,-414 319.5,-414 319.5,-414 486.5,-414 486.5,-414 492.5,-414 498.5,-420 498.5,-426 498.5,-426 498.5,-442 498.5,-442 498.5,-448 492.5,-454 486.5,-454"/>
<text text-anchor="middle" x="403" y="-438" font-family="Helvetica,sans-Serif" font-size="12.50" fill="white">STRUCTURED, longitudinal</text>
<text text-anchor="middle" x="403" y="-424" font-family="Helvetica,sans-Serif" font-size="12.50" fill="white">&amp; time data</text>
</g>
<!-- ROOT&#45;&gt;g6 -->
<g id="edge29" class="edge">
<title>ROOT&#45;&gt;g6</title>
<path fill="none" stroke="#6741d9" stroke-width="1.6" d="M184.92,-792.86C227.95,-721.73 343.58,-530.58 386.06,-460.35"/>
<polygon fill="#6741d9" stroke="#6741d9" stroke-width="1.6" points="388.18,-461.59 389.7,-454.33 383.98,-459.05 388.18,-461.59"/>
</g>
<!-- g7 -->
<g id="node37" class="node">
<title>g7</title>
<path fill="#0b7285" stroke="#0b7285" d="M470.5,-220C470.5,-220 335.5,-220 335.5,-220 329.5,-220 323.5,-214 323.5,-208 323.5,-208 323.5,-192 323.5,-192 323.5,-186 329.5,-180 335.5,-180 335.5,-180 470.5,-180 470.5,-180 476.5,-180 482.5,-186 482.5,-192 482.5,-192 482.5,-208 482.5,-208 482.5,-214 476.5,-220 470.5,-220"/>
<text text-anchor="middle" x="403" y="-204" font-family="Helvetica,sans-Serif" font-size="12.50" fill="white">ANGLES /</text>
<text text-anchor="middle" x="403" y="-190" font-family="Helvetica,sans-Serif" font-size="12.50" fill="white">DIRECTIONS (circular)</text>
</g>
<!-- ROOT&#45;&gt;g7 -->
<g id="edge36" class="edge">
<title>ROOT&#45;&gt;g7</title>
<path fill="none" stroke="#0b7285" stroke-width="1.6" d="M176.62,-792.51C196.64,-725.58 250.84,-549.1 307.5,-406 333.52,-340.29 369.54,-265.38 388.73,-226.53"/>
<polygon fill="#0b7285" stroke="#0b7285" stroke-width="1.6" points="390.97,-227.52 391.88,-220.16 386.58,-225.34 390.97,-227.52"/>
</g>
<!-- g8 -->
<g id="node41" class="node">
<title>g8</title>
<path fill="#c2255c" stroke="#c2255c" d="M445,-90C445,-90 361,-90 361,-90 355,-90 349,-84 349,-78 349,-78 349,-62 349,-62 349,-56 355,-50 361,-50 361,-50 445,-50 445,-50 451,-50 457,-56 457,-62 457,-62 457,-78 457,-78 457,-84 451,-90 445,-90"/>
<text text-anchor="middle" x="403" y="-74" font-family="Helvetica,sans-Serif" font-size="12.50" fill="white">AGREEMENT /</text>
<text text-anchor="middle" x="403" y="-60" font-family="Helvetica,sans-Serif" font-size="12.50" fill="white">RELIABILITY</text>
</g>
<!-- ROOT&#45;&gt;g8 -->
<g id="edge40" class="edge">
<title>ROOT&#45;&gt;g8</title>
<path fill="none" stroke="#c2255c" stroke-width="1.6" d="M169.25,-793C172.82,-700.8 193.16,-392.02 307.5,-172 323.13,-141.92 350.06,-114.14 371.18,-95.2"/>
<polygon fill="#c2255c" stroke="#c2255c" stroke-width="1.6" points="373.06,-96.8 376.69,-90.33 369.82,-93.13 373.06,-96.8"/>
</g>
<!-- L0 -->
<g id="node3" class="node">
<title>L0</title>
<path fill="#f7e7ea" stroke="#a51c30" d="M880,-1752C880,-1752 770,-1752 770,-1752 764,-1752 758,-1746 758,-1740 758,-1740 758,-1728 758,-1728 758,-1722 764,-1716 770,-1716 770,-1716 880,-1716 880,-1716 886,-1716 892,-1722 892,-1728 892,-1728 892,-1740 892,-1740 892,-1746 886,-1752 880,-1752"/>
<text text-anchor="middle" x="825" y="-1737.2" font-family="Helvetica,sans-Serif" font-size="11.00" fill="#1f2933">One&#45;sample t</text>
<text text-anchor="middle" x="825" y="-1725.2" font-family="Helvetica,sans-Serif" font-size="11.00" fill="#1f2933">(Wilcoxon if skewed)</text>
</g>
<!-- g1&#45;&gt;L0 -->
<g id="edge2" class="edge">
<title>g1&#45;&gt;L0</title>
<path fill="none" stroke="#a51c30" d="M490.32,-1675.96C506.31,-1679.46 522.89,-1682.95 538.5,-1686 610.43,-1700.06 693.05,-1713.68 750.84,-1722.79"/>
<polygon fill="#a51c30" stroke="#a51c30" points="750.47,-1725.21 757.77,-1723.88 751.23,-1720.37 750.47,-1725.21"/>
<text text-anchor="middle" x="604.5" y="-1710.8" font-family="Helvetica,sans-Serif" font-size="9.00">continuous</text>
</g>
<!-- L1 -->
<g id="node4" class="node">
<title>L1</title>
<path fill="#f7e7ea" stroke="#a51c30" d="M880.5,-1700C880.5,-1700 769.5,-1700 769.5,-1700 763.5,-1700 757.5,-1694 757.5,-1688 757.5,-1688 757.5,-1676 757.5,-1676 757.5,-1670 763.5,-1664 769.5,-1664 769.5,-1664 880.5,-1664 880.5,-1664 886.5,-1664 892.5,-1670 892.5,-1676 892.5,-1676 892.5,-1688 892.5,-1688 892.5,-1694 886.5,-1700 880.5,-1700"/>
<text text-anchor="middle" x="825" y="-1679.2" font-family="Helvetica,sans-Serif" font-size="11.00" fill="#1f2933">Binomial / exact test</text>
</g>
<!-- g1&#45;&gt;L1 -->
<g id="edge3" class="edge">
<title>g1&#45;&gt;L1</title>
<path fill="none" stroke="#a51c30" d="M490.01,-1661.32C566.57,-1666.06 677.41,-1672.93 750.07,-1677.42"/>
<polygon fill="#a51c30" stroke="#a51c30" points="750.28,-1679.89 757.42,-1677.88 750.58,-1675 750.28,-1679.89"/>
<text text-anchor="middle" x="604.5" y="-1674.8" font-family="Helvetica,sans-Serif" font-size="9.00">binary proportion</text>
</g>
<!-- L2 -->
<g id="node5" class="node">
<title>L2</title>
<path fill="#f7e7ea" stroke="#a51c30" d="M895.5,-1648C895.5,-1648 754.5,-1648 754.5,-1648 748.5,-1648 742.5,-1642 742.5,-1636 742.5,-1636 742.5,-1624 742.5,-1624 742.5,-1618 748.5,-1612 754.5,-1612 754.5,-1612 895.5,-1612 895.5,-1612 901.5,-1612 907.5,-1618 907.5,-1624 907.5,-1624 907.5,-1636 907.5,-1636 907.5,-1642 901.5,-1648 895.5,-1648"/>
<text text-anchor="middle" x="825" y="-1627.2" font-family="Helvetica,sans-Serif" font-size="11.00" fill="#1f2933">Chi&#45;square goodness&#45;of&#45;fit</text>
</g>
<!-- g1&#45;&gt;L2 -->
<g id="edge4" class="edge">
<title>g1&#45;&gt;L2</title>
<path fill="none" stroke="#a51c30" d="M490.01,-1650.68C561.47,-1646.25 662.78,-1639.98 735.05,-1635.51"/>
<polygon fill="#a51c30" stroke="#a51c30" points="735.55,-1637.93 742.39,-1635.05 735.25,-1633.04 735.55,-1637.93"/>
<text text-anchor="middle" x="604.5" y="-1649.8" font-family="Helvetica,sans-Serif" font-size="9.00">3+ categories</text>
</g>
<!-- L3 -->
<g id="node7" class="node">
<title>L3</title>
<path fill="#e7effb" stroke="#1c6dd0" d="M895.5,-1596C895.5,-1596 754.5,-1596 754.5,-1596 748.5,-1596 742.5,-1590 742.5,-1584 742.5,-1584 742.5,-1572 742.5,-1572 742.5,-1566 748.5,-1560 754.5,-1560 754.5,-1560 895.5,-1560 895.5,-1560 901.5,-1560 907.5,-1566 907.5,-1572 907.5,-1572 907.5,-1584 907.5,-1584 907.5,-1590 901.5,-1596 895.5,-1596"/>
<text text-anchor="middle" x="825" y="-1581.2" font-family="Helvetica,sans-Serif" font-size="11.00" fill="#1f2933">Welch&#39;s / Student&#39;s t</text>
<text text-anchor="middle" x="825" y="-1569.2" font-family="Helvetica,sans-Serif" font-size="11.00" fill="#1f2933">(Mann&#45;Whitney if skewed)</text>
</g>
<!-- g2&#45;&gt;L3 -->
<g id="edge6" class="edge">
<title>g2&#45;&gt;L3</title>
<path fill="none" stroke="#1c6dd0" d="M451.78,-1492.02C477.27,-1501.21 509.32,-1512.08 538.5,-1520 603.68,-1537.69 678.55,-1552.71 735.26,-1563.02"/>
<polygon fill="#1c6dd0" stroke="#1c6dd0" points="735.11,-1565.49 742.43,-1564.32 735.98,-1560.67 735.11,-1565.49"/>
<text text-anchor="middle" x="604.5" y="-1551.8" font-family="Helvetica,sans-Serif" font-size="9.00">independent, continuous</text>
</g>
<!-- L4 -->
<g id="node8" class="node">
<title>L4</title>
<path fill="#e7effb" stroke="#1c6dd0" d="M882,-1544C882,-1544 768,-1544 768,-1544 762,-1544 756,-1538 756,-1532 756,-1532 756,-1520 756,-1520 756,-1514 762,-1508 768,-1508 768,-1508 882,-1508 882,-1508 888,-1508 894,-1514 894,-1520 894,-1520 894,-1532 894,-1532 894,-1538 888,-1544 882,-1544"/>
<text text-anchor="middle" x="825" y="-1523.2" font-family="Helvetica,sans-Serif" font-size="11.00" fill="#1f2933">Two&#45;proportion z&#45;test</text>
</g>
<!-- g2&#45;&gt;L4 -->
<g id="edge7" class="edge">
<title>g2&#45;&gt;L4</title>
<path fill="none" stroke="#1c6dd0" d="M451.77,-1479.91C524.23,-1488.89 662.58,-1506.02 748.68,-1516.68"/>
<polygon fill="#1c6dd0" stroke="#1c6dd0" points="748.57,-1519.13 755.82,-1517.56 749.17,-1514.27 748.57,-1519.13"/>
<text text-anchor="middle" x="604.5" y="-1508.8" font-family="Helvetica,sans-Serif" font-size="9.00">independent, binary</text>
</g>
<!-- L5 -->
<g id="node9" class="node">
<title>L5</title>
<path fill="#e7effb" stroke="#1c6dd0" d="M897,-1492C897,-1492 753,-1492 753,-1492 747,-1492 741,-1486 741,-1480 741,-1480 741,-1468 741,-1468 741,-1462 747,-1456 753,-1456 753,-1456 897,-1456 897,-1456 903,-1456 909,-1462 909,-1468 909,-1468 909,-1480 909,-1480 909,-1486 903,-1492 897,-1492"/>
<text text-anchor="middle" x="825" y="-1477.2" font-family="Helvetica,sans-Serif" font-size="11.00" fill="#1f2933">Paired t</text>
<text text-anchor="middle" x="825" y="-1465.2" font-family="Helvetica,sans-Serif" font-size="11.00" fill="#1f2933">(Wilcoxon / sign if skewed)</text>
</g>
<!-- g2&#45;&gt;L5 -->
<g id="edge8" class="edge">
<title>g2&#45;&gt;L5</title>
<path fill="none" stroke="#1c6dd0" d="M451.77,-1474C520.15,-1474 647.22,-1474 733.67,-1474"/>
<polygon fill="#1c6dd0" stroke="#1c6dd0" points="733.86,-1476.45 740.86,-1474 733.86,-1471.55 733.86,-1476.45"/>
<text text-anchor="middle" x="604.5" y="-1476.8" font-family="Helvetica,sans-Serif" font-size="9.00">paired, continuous</text>
</g>
<!-- L6 -->
<g id="node10" class="node">
<title>L6</title>
<path fill="#e7effb" stroke="#1c6dd0" d="M867,-1440C867,-1440 783,-1440 783,-1440 777,-1440 771,-1434 771,-1428 771,-1428 771,-1416 771,-1416 771,-1410 777,-1404 783,-1404 783,-1404 867,-1404 867,-1404 873,-1404 879,-1410 879,-1416 879,-1416 879,-1428 879,-1428 879,-1434 873,-1440 867,-1440"/>
<text text-anchor="middle" x="825" y="-1419.2" font-family="Helvetica,sans-Serif" font-size="11.00" fill="#1f2933">McNemar&#39;s test</text>
</g>
<!-- g2&#45;&gt;L6 -->
<g id="edge9" class="edge">
<title>g2&#45;&gt;L6</title>
<path fill="none" stroke="#1c6dd0" d="M451.77,-1468.09C528.55,-1458.58 679.29,-1439.92 763.48,-1429.49"/>
<polygon fill="#1c6dd0" stroke="#1c6dd0" points="764.02,-1431.89 770.67,-1428.6 763.42,-1427.03 764.02,-1431.89"/>
<text text-anchor="middle" x="604.5" y="-1459.8" font-family="Helvetica,sans-Serif" font-size="9.00">paired, binary</text>
</g>
<!-- L7 -->
<g id="node12" class="node">
<title>L7</title>
<path fill="#e7effb" stroke="#1c6dd0" d="M916.5,-1388C916.5,-1388 733.5,-1388 733.5,-1388 727.5,-1388 721.5,-1382 721.5,-1376 721.5,-1376 721.5,-1364 721.5,-1364 721.5,-1358 727.5,-1352 733.5,-1352 733.5,-1352 916.5,-1352 916.5,-1352 922.5,-1352 928.5,-1358 928.5,-1364 928.5,-1364 928.5,-1376 928.5,-1376 928.5,-1382 922.5,-1388 916.5,-1388"/>
<text text-anchor="middle" x="825" y="-1373.2" font-family="Helvetica,sans-Serif" font-size="11.00" fill="#1f2933">One&#45;way ANOVA + Tukey</text>
<text text-anchor="middle" x="825" y="-1361.2" font-family="Helvetica,sans-Serif" font-size="11.00" fill="#1f2933">(Kruskal&#45;Wallis + Dunn if skewed)</text>
</g>
<!-- g3&#45;&gt;L7 -->
<g id="edge11" class="edge">
<title>g3&#45;&gt;L7</title>
<path fill="none" stroke="#1c6dd0" d="M421.43,-1208.15C445.2,-1234.33 490.39,-1279.56 538.5,-1304 593.09,-1331.73 659.45,-1347.98 714.45,-1357.41"/>
<polygon fill="#1c6dd0" stroke="#1c6dd0" points="714.13,-1359.84 721.44,-1358.58 714.94,-1355 714.13,-1359.84"/>
<text text-anchor="middle" x="604.5" y="-1349.8" font-family="Helvetica,sans-Serif" font-size="9.00">independent, continuous</text>
</g>
<!-- L8 -->
<g id="node13" class="node">
<title>L8</title>
<path fill="#e7effb" stroke="#1c6dd0" d="M892.5,-1336C892.5,-1336 757.5,-1336 757.5,-1336 751.5,-1336 745.5,-1330 745.5,-1324 745.5,-1324 745.5,-1312 745.5,-1312 745.5,-1306 751.5,-1300 757.5,-1300 757.5,-1300 892.5,-1300 892.5,-1300 898.5,-1300 904.5,-1306 904.5,-1312 904.5,-1312 904.5,-1324 904.5,-1324 904.5,-1330 898.5,-1336 892.5,-1336"/>
<text text-anchor="middle" x="825" y="-1315.2" font-family="Helvetica,sans-Serif" font-size="11.00" fill="#1f2933">Two&#45;way factorial ANOVA</text>
</g>
<!-- g3&#45;&gt;L8 -->
<g id="edge12" class="edge">
<title>g3&#45;&gt;L8</title>
<path fill="none" stroke="#1c6dd0" d="M438.97,-1208.01C465.56,-1222.51 503.41,-1241.65 538.5,-1254 604,-1277.05 680.95,-1293.73 738.45,-1304.27"/>
<polygon fill="#1c6dd0" stroke="#1c6dd0" points="738.04,-1306.69 745.36,-1305.53 738.91,-1301.87 738.04,-1306.69"/>
<text text-anchor="middle" x="604.5" y="-1292.8" font-family="Helvetica,sans-Serif" font-size="9.00">two factors / interaction</text>
</g>
<!-- L9 -->
<g id="node14" class="node">
<title>L9</title>
<path fill="#e7effb" stroke="#1c6dd0" d="M846,-1284C846,-1284 804,-1284 804,-1284 798,-1284 792,-1278 792,-1272 792,-1272 792,-1260 792,-1260 792,-1254 798,-1248 804,-1248 804,-1248 846,-1248 846,-1248 852,-1248 858,-1254 858,-1260 858,-1260 858,-1272 858,-1272 858,-1278 852,-1284 846,-1284"/>
<text text-anchor="middle" x="825" y="-1263.2" font-family="Helvetica,sans-Serif" font-size="11.00" fill="#1f2933">ANCOVA</text>
</g>
<!-- g3&#45;&gt;L9 -->
<g id="edge13" class="edge">
<title>g3&#45;&gt;L9</title>
<path fill="none" stroke="#1c6dd0" d="M463.78,-1202.05C487.05,-1207.33 513.96,-1213.2 538.5,-1218 626.07,-1235.12 729.48,-1251.58 784.65,-1260.06"/>
<polygon fill="#1c6dd0" stroke="#1c6dd0" points="784.5,-1262.51 791.79,-1261.15 785.24,-1257.67 784.5,-1262.51"/>
<text text-anchor="middle" x="604.5" y="-1242.8" font-family="Helvetica,sans-Serif" font-size="9.00">control a covariate</text>
</g>
<!-- L10 -->
<g id="node15" class="node">
<title>L10</title>
<path fill="#e7effb" stroke="#1c6dd0" d="M899.5,-1232C899.5,-1232 750.5,-1232 750.5,-1232 744.5,-1232 738.5,-1226 738.5,-1220 738.5,-1220 738.5,-1208 738.5,-1208 738.5,-1202 744.5,-1196 750.5,-1196 750.5,-1196 899.5,-1196 899.5,-1196 905.5,-1196 911.5,-1202 911.5,-1208 911.5,-1208 911.5,-1220 911.5,-1220 911.5,-1226 905.5,-1232 899.5,-1232"/>
<text text-anchor="middle" x="825" y="-1217.2" font-family="Helvetica,sans-Serif" font-size="11.00" fill="#1f2933">Repeated&#45;measures ANOVA</text>
<text text-anchor="middle" x="825" y="-1205.2" font-family="Helvetica,sans-Serif" font-size="11.00" fill="#1f2933">(Friedman if skewed)</text>
</g>
<!-- g3&#45;&gt;L10 -->
<g id="edge14" class="edge">
<title>g3&#45;&gt;L10</title>
<path fill="none" stroke="#1c6dd0" d="M463.73,-1191.7C533.42,-1196.01 649.47,-1203.2 730.99,-1208.24"/>
<polygon fill="#1c6dd0" stroke="#1c6dd0" points="731.13,-1210.71 738.27,-1208.69 731.44,-1205.82 731.13,-1210.71"/>
<text text-anchor="middle" x="604.5" y="-1206.8" font-family="Helvetica,sans-Serif" font-size="9.00">repeated, continuous</text>
</g>
<!-- L11 -->
<g id="node16" class="node">
<title>L11</title>
<path fill="#e7effb" stroke="#1c6dd0" d="M856.5,-1180C856.5,-1180 793.5,-1180 793.5,-1180 787.5,-1180 781.5,-1174 781.5,-1168 781.5,-1168 781.5,-1156 781.5,-1156 781.5,-1150 787.5,-1144 793.5,-1144 793.5,-1144 856.5,-1144 856.5,-1144 862.5,-1144 868.5,-1150 868.5,-1156 868.5,-1156 868.5,-1168 868.5,-1168 868.5,-1174 862.5,-1180 856.5,-1180"/>
<text text-anchor="middle" x="825" y="-1159.2" font-family="Helvetica,sans-Serif" font-size="11.00" fill="#1f2933">Cochran&#39;s Q</text>
</g>
<!-- g3&#45;&gt;L11 -->
<g id="edge15" class="edge">
<title>g3&#45;&gt;L11</title>
<path fill="none" stroke="#1c6dd0" d="M463.73,-1184.3C546.99,-1179.15 696.43,-1169.9 774.09,-1165.09"/>
<polygon fill="#1c6dd0" stroke="#1c6dd0" points="774.54,-1167.52 781.37,-1164.64 774.23,-1162.63 774.54,-1167.52"/>
<text text-anchor="middle" x="604.5" y="-1181.8" font-family="Helvetica,sans-Serif" font-size="9.00">repeated, binary</text>
</g>
<!-- L12 -->
<g id="node17" class="node">
<title>L12</title>
<path fill="#e7effb" stroke="#1c6dd0" d="M880.5,-1128C880.5,-1128 769.5,-1128 769.5,-1128 763.5,-1128 757.5,-1122 757.5,-1116 757.5,-1116 757.5,-1104 757.5,-1104 757.5,-1098 763.5,-1092 769.5,-1092 769.5,-1092 880.5,-1092 880.5,-1092 886.5,-1092 892.5,-1098 892.5,-1104 892.5,-1104 892.5,-1116 892.5,-1116 892.5,-1122 886.5,-1128 880.5,-1128"/>
<text text-anchor="middle" x="825" y="-1107.2" font-family="Helvetica,sans-Serif" font-size="11.00" fill="#1f2933">Mixed&#45;design ANOVA</text>
</g>
<!-- g3&#45;&gt;L12 -->
<g id="edge16" class="edge">
<title>g3&#45;&gt;L12</title>
<path fill="none" stroke="#1c6dd0" d="M463.75,-1173.37C487.01,-1167.9 513.93,-1161.85 538.5,-1157 610.25,-1142.84 692.72,-1129.59 750.52,-1120.79"/>
<polygon fill="#1c6dd0" stroke="#1c6dd0" points="750.89,-1123.21 757.44,-1119.74 750.16,-1118.36 750.89,-1123.21"/>
<text text-anchor="middle" x="604.5" y="-1159.8" font-family="Helvetica,sans-Serif" font-size="9.00">groups x repeated</text>
</g>
<!-- L13 -->
<g id="node18" class="node">
<title>L13</title>
<path fill="#e7effb" stroke="#1c6dd0" d="M847.5,-1076C847.5,-1076 802.5,-1076 802.5,-1076 796.5,-1076 790.5,-1070 790.5,-1064 790.5,-1064 790.5,-1052 790.5,-1052 790.5,-1046 796.5,-1040 802.5,-1040 802.5,-1040 847.5,-1040 847.5,-1040 853.5,-1040 859.5,-1046 859.5,-1052 859.5,-1052 859.5,-1064 859.5,-1064 859.5,-1070 853.5,-1076 847.5,-1076"/>
<text text-anchor="middle" x="825" y="-1055.2" font-family="Helvetica,sans-Serif" font-size="11.00" fill="#1f2933">MANOVA</text>
</g>
<!-- g3&#45;&gt;L13 -->
<g id="edge17" class="edge">
<title>g3&#45;&gt;L13</title>
<path fill="none" stroke="#1c6dd0" d="M437.76,-1167.89C464.34,-1152.82 502.74,-1132.69 538.5,-1120 623.08,-1089.99 727.12,-1071.85 783.32,-1063.5"/>
<polygon fill="#1c6dd0" stroke="#1c6dd0" points="783.7,-1065.92 790.27,-1062.48 782.99,-1061.07 783.7,-1065.92"/>
<text text-anchor="middle" x="604.5" y="-1122.8" font-family="Helvetica,sans-Serif" font-size="9.00">several correlated DVs</text>
</g>
<!-- L14 -->
<g id="node20" class="node">
<title>L14</title>
<path fill="#e3f3e8" stroke="#2b8a3e" d="M915.5,-1024C915.5,-1024 734.5,-1024 734.5,-1024 728.5,-1024 722.5,-1018 722.5,-1012 722.5,-1012 722.5,-1000 722.5,-1000 722.5,-994 728.5,-988 734.5,-988 734.5,-988 915.5,-988 915.5,-988 921.5,-988 927.5,-994 927.5,-1000 927.5,-1000 927.5,-1012 927.5,-1012 927.5,-1018 921.5,-1024 915.5,-1024"/>
<text text-anchor="middle" x="825" y="-1009.2" font-family="Helvetica,sans-Serif" font-size="11.00" fill="#1f2933">Pearson</text>
<text text-anchor="middle" x="825" y="-997.2" font-family="Helvetica,sans-Serif" font-size="11.00" fill="#1f2933">(Spearman / Kendall if non&#45;linear)</text>
</g>
<!-- g4&#45;&gt;L14 -->
<g id="edge19" class="edge">
<title>g4&#45;&gt;L14</title>
<path fill="none" stroke="#2b8a3e" d="M455.57,-921.38C480.41,-930.27 510.75,-940.47 538.5,-948 596.19,-963.66 661.47,-977.22 715.03,-987.28"/>
<polygon fill="#2b8a3e" stroke="#2b8a3e" points="714.84,-989.74 722.17,-988.62 715.74,-984.92 714.84,-989.74"/>
<text text-anchor="middle" x="604.5" y="-979.8" font-family="Helvetica,sans-Serif" font-size="9.00">two continuous</text>
</g>
<!-- L15 -->
<g id="node21" class="node">
<title>L15</title>
<path fill="#e3f3e8" stroke="#2b8a3e" d="M890,-972C890,-972 760,-972 760,-972 754,-972 748,-966 748,-960 748,-960 748,-948 748,-948 748,-942 754,-936 760,-936 760,-936 890,-936 890,-936 896,-936 902,-942 902,-948 902,-948 902,-960 902,-960 902,-966 896,-972 890,-972"/>
<text text-anchor="middle" x="825" y="-951.2" font-family="Helvetica,sans-Serif" font-size="11.00" fill="#1f2933">Point&#45;biserial correlation</text>
</g>
<!-- g4&#45;&gt;L15 -->
<g id="edge20" class="edge">
<title>g4&#45;&gt;L15</title>
<path fill="none" stroke="#2b8a3e" d="M455.5,-908.38C526.66,-917.19 655.88,-933.18 740.82,-943.7"/>
<polygon fill="#2b8a3e" stroke="#2b8a3e" points="740.63,-946.15 747.88,-944.58 741.23,-941.28 740.63,-946.15"/>
<text text-anchor="middle" x="604.5" y="-936.8" font-family="Helvetica,sans-Serif" font-size="9.00">continuous + binary</text>
</g>
<!-- L16 -->
<g id="node22" class="node">
<title>L16</title>
<path fill="#e3f3e8" stroke="#2b8a3e" d="M892.5,-920C892.5,-920 757.5,-920 757.5,-920 751.5,-920 745.5,-914 745.5,-908 745.5,-908 745.5,-896 745.5,-896 745.5,-890 751.5,-884 757.5,-884 757.5,-884 892.5,-884 892.5,-884 898.5,-884 904.5,-890 904.5,-896 904.5,-896 904.5,-908 904.5,-908 904.5,-914 898.5,-920 892.5,-920"/>
<text text-anchor="middle" x="825" y="-905.2" font-family="Helvetica,sans-Serif" font-size="11.00" fill="#1f2933">Chi&#45;square independence</text>
<text text-anchor="middle" x="825" y="-893.2" font-family="Helvetica,sans-Serif" font-size="11.00" fill="#1f2933">(Fisher&#39;s exact if small n)</text>
</g>
<!-- g4&#45;&gt;L16 -->
<g id="edge21" class="edge">
<title>g4&#45;&gt;L16</title>
<path fill="none" stroke="#2b8a3e" d="M455.5,-902C525.92,-902 653.17,-902 738.14,-902"/>
<polygon fill="#2b8a3e" stroke="#2b8a3e" points="738.2,-904.45 745.2,-902 738.2,-899.55 738.2,-904.45"/>
<text text-anchor="middle" x="604.5" y="-904.8" font-family="Helvetica,sans-Serif" font-size="9.00">two categorical</text>
</g>
<!-- L17 -->
<g id="node23" class="node">
<title>L17</title>
<path fill="#e3f3e8" stroke="#2b8a3e" d="M872,-868C872,-868 778,-868 778,-868 772,-868 766,-862 766,-856 766,-856 766,-844 766,-844 766,-838 772,-832 778,-832 778,-832 872,-832 872,-832 878,-832 884,-838 884,-844 884,-844 884,-856 884,-856 884,-862 878,-868 872,-868"/>
<text text-anchor="middle" x="825" y="-847.2" font-family="Helvetica,sans-Serif" font-size="11.00" fill="#1f2933">Partial correlation</text>
</g>
<!-- g4&#45;&gt;L17 -->
<g id="edge22" class="edge">
<title>g4&#45;&gt;L17</title>
<path fill="none" stroke="#2b8a3e" d="M455.5,-895.62C531.8,-886.18 674.86,-868.47 758.51,-858.11"/>
<polygon fill="#2b8a3e" stroke="#2b8a3e" points="759.02,-860.51 765.67,-857.22 758.42,-855.65 759.02,-860.51"/>
<text text-anchor="middle" x="604.5" y="-887.8" font-family="Helvetica,sans-Serif" font-size="9.00">controlling a 3rd var</text>
</g>
<!-- L18 -->
<g id="node25" class="node">
<title>L18</title>
<path fill="#fbefe2" stroke="#b5651d" d="M871,-816C871,-816 779,-816 779,-816 773,-816 767,-810 767,-804 767,-804 767,-792 767,-792 767,-786 773,-780 779,-780 779,-780 871,-780 871,-780 877,-780 883,-786 883,-792 883,-792 883,-804 883,-804 883,-810 877,-816 871,-816"/>
<text text-anchor="middle" x="825" y="-795.2" font-family="Helvetica,sans-Serif" font-size="11.00" fill="#1f2933">Linear regression</text>
</g>
<!-- g5&#45;&gt;L18 -->
<g id="edge24" class="edge">
<title>g5&#45;&gt;L18</title>
<path fill="none" stroke="#b5651d" d="M466.13,-732.04C488.84,-737.35 514.78,-743.19 538.5,-748 614.33,-763.37 702.05,-778.31 760.03,-787.8"/>
<polygon fill="#b5651d" stroke="#b5651d" points="759.65,-790.22 766.96,-788.93 760.44,-785.38 759.65,-790.22"/>
<text text-anchor="middle" x="604.5" y="-773.8" font-family="Helvetica,sans-Serif" font-size="9.00">continuous outcome</text>
</g>
<!-- L19 -->
<g id="node26" class="node">
<title>L19</title>
<path fill="#fbefe2" stroke="#b5651d" d="M875,-764C875,-764 775,-764 775,-764 769,-764 763,-758 763,-752 763,-752 763,-740 763,-740 763,-734 769,-728 775,-728 775,-728 875,-728 875,-728 881,-728 887,-734 887,-740 887,-740 887,-752 887,-752 887,-758 881,-764 875,-764"/>
<text text-anchor="middle" x="825" y="-743.2" font-family="Helvetica,sans-Serif" font-size="11.00" fill="#1f2933">Logistic regression</text>
</g>
<!-- g5&#45;&gt;L19 -->
<g id="edge25" class="edge">
<title>g5&#45;&gt;L19</title>
<path fill="none" stroke="#b5651d" d="M466.42,-721.31C543.95,-726.66 675.73,-735.76 755.83,-741.29"/>
<polygon fill="#b5651d" stroke="#b5651d" points="755.79,-743.75 762.94,-741.78 756.13,-738.86 755.79,-743.75"/>
<text text-anchor="middle" x="604.5" y="-736.8" font-family="Helvetica,sans-Serif" font-size="9.00">binary outcome</text>
</g>
<!-- L20 -->
<g id="node27" class="node">
<title>L20</title>
<path fill="#fbefe2" stroke="#b5651d" d="M902.5,-712C902.5,-712 747.5,-712 747.5,-712 741.5,-712 735.5,-706 735.5,-700 735.5,-700 735.5,-688 735.5,-688 735.5,-682 741.5,-676 747.5,-676 747.5,-676 902.5,-676 902.5,-676 908.5,-676 914.5,-682 914.5,-688 914.5,-688 914.5,-700 914.5,-700 914.5,-706 908.5,-712 902.5,-712"/>
<text text-anchor="middle" x="825" y="-691.2" font-family="Helvetica,sans-Serif" font-size="11.00" fill="#1f2933">Ordinal / multinomial logistic</text>
</g>
<!-- g5&#45;&gt;L20 -->
<g id="edge26" class="edge">
<title>g5&#45;&gt;L20</title>
<path fill="none" stroke="#b5651d" d="M466.42,-713.58C535.52,-709.8 647.72,-703.65 728.01,-699.26"/>
<polygon fill="#b5651d" stroke="#b5651d" points="728.33,-701.69 735.19,-698.86 728.07,-696.8 728.33,-701.69"/>
<text text-anchor="middle" x="604.5" y="-711.8" font-family="Helvetica,sans-Serif" font-size="9.00">ordered / nominal outcome</text>
</g>
<!-- L21 -->
<g id="node28" class="node">
<title>L21</title>
<path fill="#fbefe2" stroke="#b5651d" d="M898.5,-660C898.5,-660 751.5,-660 751.5,-660 745.5,-660 739.5,-654 739.5,-648 739.5,-648 739.5,-636 739.5,-636 739.5,-630 745.5,-624 751.5,-624 751.5,-624 898.5,-624 898.5,-624 904.5,-624 910.5,-630 910.5,-636 910.5,-636 910.5,-648 910.5,-648 910.5,-654 904.5,-660 898.5,-660"/>
<text text-anchor="middle" x="825" y="-645.2" font-family="Helvetica,sans-Serif" font-size="11.00" fill="#1f2933">Poisson / negative binomial</text>
<text text-anchor="middle" x="825" y="-633.2" font-family="Helvetica,sans-Serif" font-size="11.00" fill="#1f2933">(zero&#45;inflated if many 0s)</text>
</g>
<!-- g5&#45;&gt;L21 -->
<g id="edge27" class="edge">
<title>g5&#45;&gt;L21</title>
<path fill="none" stroke="#b5651d" d="M466.14,-702.89C488.85,-697.92 514.79,-692.46 538.5,-688 603.09,-675.84 676.27,-664.09 732.37,-655.51"/>
<polygon fill="#b5651d" stroke="#b5651d" points="732.92,-657.9 739.47,-654.43 732.18,-653.06 732.92,-657.9"/>
<text text-anchor="middle" x="604.5" y="-690.8" font-family="Helvetica,sans-Serif" font-size="9.00">count outcome</text>
</g>
<!-- L22 -->
<g id="node29" class="node">
<title>L22</title>
<path fill="#fbefe2" stroke="#b5651d" d="M867,-608C867,-608 783,-608 783,-608 777,-608 771,-602 771,-596 771,-596 771,-584 771,-584 771,-578 777,-572 783,-572 783,-572 867,-572 867,-572 873,-572 879,-578 879,-584 879,-584 879,-596 879,-596 879,-602 873,-608 867,-608"/>
<text text-anchor="middle" x="825" y="-587.2" font-family="Helvetica,sans-Serif" font-size="11.00" fill="#1f2933">Beta regression</text>
</g>
<!-- g5&#45;&gt;L22 -->
<g id="edge28" class="edge">
<title>g5&#45;&gt;L22</title>
<path fill="none" stroke="#b5651d" d="M439.55,-696.95C466.11,-682.69 503.68,-664 538.5,-652 614.3,-625.87 705.34,-608.37 763.91,-598.8"/>
<polygon fill="#b5651d" stroke="#b5651d" points="764.37,-601.21 770.88,-597.68 763.58,-596.37 764.37,-601.21"/>
<text text-anchor="middle" x="604.5" y="-654.8" font-family="Helvetica,sans-Serif" font-size="9.00">proportion (0&#45;1)</text>
</g>
<!-- L23 -->
<g id="node31" class="node">
<title>L23</title>
<path fill="#eee9fb" stroke="#6741d9" d="M916.5,-556C916.5,-556 733.5,-556 733.5,-556 727.5,-556 721.5,-550 721.5,-544 721.5,-544 721.5,-532 721.5,-532 721.5,-526 727.5,-520 733.5,-520 733.5,-520 916.5,-520 916.5,-520 922.5,-520 928.5,-526 928.5,-532 928.5,-532 928.5,-544 928.5,-544 928.5,-550 922.5,-556 916.5,-556"/>
<text text-anchor="middle" x="825" y="-535.2" font-family="Helvetica,sans-Serif" font-size="11.00" fill="#1f2933">Mixed&#45;effects model (LMM/GLMM)</text>
</g>
<!-- g6&#45;&gt;L23 -->
<g id="edge30" class="edge">
<title>g6&#45;&gt;L23</title>
<path fill="none" stroke="#6741d9" d="M457.5,-454.07C481.97,-462.79 511.47,-472.66 538.5,-480 595.84,-495.56 660.68,-509.05 714.05,-519.1"/>
<polygon fill="#6741d9" stroke="#6741d9" points="713.84,-521.55 721.17,-520.43 714.74,-516.74 713.84,-521.55"/>
<text text-anchor="middle" x="604.5" y="-511.8" font-family="Helvetica,sans-Serif" font-size="9.00">nested / repeated / clustered</text>
</g>
<!-- L24 -->
<g id="node32" class="node">
<title>L24</title>
<path fill="#eee9fb" stroke="#6741d9" d="M903,-504C903,-504 747,-504 747,-504 741,-504 735,-498 735,-492 735,-492 735,-480 735,-480 735,-474 741,-468 747,-468 747,-468 903,-468 903,-468 909,-468 915,-474 915,-480 915,-480 915,-492 915,-492 915,-498 909,-504 903,-504"/>
<text text-anchor="middle" x="825" y="-483.2" font-family="Helvetica,sans-Serif" font-size="11.00" fill="#1f2933">Kaplan&#45;Meier / log&#45;rank / Cox</text>
</g>
<!-- g6&#45;&gt;L24 -->
<g id="edge31" class="edge">
<title>g6&#45;&gt;L24</title>
<path fill="none" stroke="#6741d9" d="M498.52,-445.7C566.92,-454.17 659.06,-465.58 727.84,-474.09"/>
<polygon fill="#6741d9" stroke="#6741d9" points="727.59,-476.53 734.84,-474.96 728.2,-471.67 727.59,-476.53"/>
<text text-anchor="middle" x="604.5" y="-468.8" font-family="Helvetica,sans-Serif" font-size="9.00">time&#45;to&#45;event</text>
</g>
<!-- L25 -->
<g id="node33" class="node">
<title>L25</title>
<path fill="#eee9fb" stroke="#6741d9" d="M908.5,-452C908.5,-452 741.5,-452 741.5,-452 735.5,-452 729.5,-446 729.5,-440 729.5,-440 729.5,-428 729.5,-428 729.5,-422 735.5,-416 741.5,-416 741.5,-416 908.5,-416 908.5,-416 914.5,-416 920.5,-422 920.5,-428 920.5,-428 920.5,-440 920.5,-440 920.5,-446 914.5,-452 908.5,-452"/>
<text text-anchor="middle" x="825" y="-431.2" font-family="Helvetica,sans-Serif" font-size="11.00" fill="#1f2933">Cross&#45;correlation, DTW, ARIMA</text>
</g>
<!-- g6&#45;&gt;L25 -->
<g id="edge32" class="edge">
<title>g6&#45;&gt;L25</title>
<path fill="none" stroke="#6741d9" d="M498.52,-434C565.04,-434 653.99,-434 722.09,-434"/>
<polygon fill="#6741d9" stroke="#6741d9" points="722.45,-436.45 729.45,-434 722.45,-431.55 722.45,-436.45"/>
<text text-anchor="middle" x="604.5" y="-436.8" font-family="Helvetica,sans-Serif" font-size="9.00">sequential signals</text>
</g>
<!-- L26 -->
<g id="node34" class="node">
<title>L26</title>
<path fill="#eee9fb" stroke="#6741d9" d="M906,-400C906,-400 744,-400 744,-400 738,-400 732,-394 732,-388 732,-388 732,-376 732,-376 732,-370 738,-364 744,-364 744,-364 906,-364 906,-364 912,-364 918,-370 918,-376 918,-376 918,-388 918,-388 918,-394 912,-400 906,-400"/>
<text text-anchor="middle" x="825" y="-379.2" font-family="Helvetica,sans-Serif" font-size="11.00" fill="#1f2933">Latent growth curve modeling</text>
</g>
<!-- g6&#45;&gt;L26 -->
<g id="edge33" class="edge">
<title>g6&#45;&gt;L26</title>
<path fill="none" stroke="#6741d9" d="M498.52,-422.3C565.99,-413.94 656.54,-402.73 725,-394.26"/>
<polygon fill="#6741d9" stroke="#6741d9" points="725.33,-396.68 731.98,-393.39 724.73,-391.82 725.33,-396.68"/>
<text text-anchor="middle" x="604.5" y="-419.8" font-family="Helvetica,sans-Serif" font-size="9.00">trajectories over time</text>
</g>
<!-- L27 -->
<g id="node35" class="node">
<title>L27</title>
<path fill="#eee9fb" stroke="#6741d9" d="M896,-348C896,-348 754,-348 754,-348 748,-348 742,-342 742,-336 742,-336 742,-324 742,-324 742,-318 748,-312 754,-312 754,-312 896,-312 896,-312 902,-312 908,-318 908,-324 908,-324 908,-336 908,-336 908,-342 902,-348 896,-348"/>
<text text-anchor="middle" x="825" y="-327.2" font-family="Helvetica,sans-Serif" font-size="11.00" fill="#1f2933">PCA &#45;&gt; EFA &#45;&gt; CFA &#45;&gt; SEM</text>
</g>
<!-- g6&#45;&gt;L27 -->
<g id="edge34" class="edge">
<title>g6&#45;&gt;L27</title>
<path fill="none" stroke="#6741d9" d="M455.85,-413.99C480.61,-404.92 510.82,-394.56 538.5,-387 603.38,-369.28 677.94,-354.58 734.6,-344.55"/>
<polygon fill="#6741d9" stroke="#6741d9" points="735.3,-346.92 741.77,-343.29 734.45,-342.09 735.3,-346.92"/>
<text text-anchor="middle" x="604.5" y="-389.8" font-family="Helvetica,sans-Serif" font-size="9.00">hidden constructs</text>
</g>
<!-- L28 -->
<g id="node36" class="node">
<title>L28</title>
<path fill="#eee9fb" stroke="#6741d9" d="M927.5,-296C927.5,-296 722.5,-296 722.5,-296 716.5,-296 710.5,-290 710.5,-284 710.5,-284 710.5,-272 710.5,-272 710.5,-266 716.5,-260 722.5,-260 722.5,-260 927.5,-260 927.5,-260 933.5,-260 939.5,-266 939.5,-272 939.5,-272 939.5,-284 939.5,-284 939.5,-290 933.5,-296 927.5,-296"/>
<text text-anchor="middle" x="825" y="-275.2" font-family="Helvetica,sans-Serif" font-size="11.00" fill="#1f2933">Clustering, PCA / UMAP &#160;(exploratory)</text>
</g>
<!-- g6&#45;&gt;L28 -->
<g id="edge35" class="edge">
<title>g6&#45;&gt;L28</title>
<path fill="none" stroke="#6741d9" d="M428.19,-413.83C453.97,-393.34 496.74,-362.11 538.5,-344 590.43,-321.49 651.14,-306.07 703.2,-295.85"/>
<polygon fill="#6741d9" stroke="#6741d9" points="703.75,-298.23 710.16,-294.5 702.82,-293.42 703.75,-298.23"/>
<text text-anchor="middle" x="604.5" y="-346.8" font-family="Helvetica,sans-Serif" font-size="9.00">discover groups (no labels)</text>
</g>
<!-- L29 -->
<g id="node38" class="node">
<title>L29</title>
<path fill="#e1f1f3" stroke="#0b7285" d="M868.5,-244C868.5,-244 781.5,-244 781.5,-244 775.5,-244 769.5,-238 769.5,-232 769.5,-232 769.5,-220 769.5,-220 769.5,-214 775.5,-208 781.5,-208 781.5,-208 868.5,-208 868.5,-208 874.5,-208 880.5,-214 880.5,-220 880.5,-220 880.5,-232 880.5,-232 880.5,-238 874.5,-244 868.5,-244"/>
<text text-anchor="middle" x="825" y="-223.2" font-family="Helvetica,sans-Serif" font-size="11.00" fill="#1f2933">Rayleigh / V&#45;test</text>
</g>
<!-- g7&#45;&gt;L29 -->
<g id="edge37" class="edge">
<title>g7&#45;&gt;L29</title>
<path fill="none" stroke="#0b7285" d="M482.51,-204.86C563.47,-209.87 688.07,-217.59 762.26,-222.18"/>
<polygon fill="#0b7285" stroke="#0b7285" points="762.14,-224.63 769.28,-222.61 762.45,-219.73 762.14,-224.63"/>
<text text-anchor="middle" x="604.5" y="-218.8" font-family="Helvetica,sans-Serif" font-size="9.00">one sample of angles</text>
</g>
<!-- L30 -->
<g id="node39" class="node">
<title>L30</title>
<path fill="#e1f1f3" stroke="#0b7285" d="M904.5,-192C904.5,-192 745.5,-192 745.5,-192 739.5,-192 733.5,-186 733.5,-180 733.5,-180 733.5,-168 733.5,-168 733.5,-162 739.5,-156 745.5,-156 745.5,-156 904.5,-156 904.5,-156 910.5,-156 916.5,-162 916.5,-168 916.5,-168 916.5,-180 916.5,-180 916.5,-186 910.5,-192 904.5,-192"/>
<text text-anchor="middle" x="825" y="-171.2" font-family="Helvetica,sans-Serif" font-size="11.00" fill="#1f2933">Watson&#45;Williams / Watson U2</text>
</g>
<!-- g7&#45;&gt;L30 -->
<g id="edge38" class="edge">
<title>g7&#45;&gt;L30</title>
<path fill="none" stroke="#0b7285" d="M482.51,-195.14C551.51,-190.87 652.21,-184.63 726.38,-180.04"/>
<polygon fill="#0b7285" stroke="#0b7285" points="726.64,-182.48 733.48,-179.6 726.34,-177.59 726.64,-182.48"/>
<text text-anchor="middle" x="604.5" y="-193.8" font-family="Helvetica,sans-Serif" font-size="9.00">compare groups of angles</text>
</g>
<!-- L31 -->
<g id="node40" class="node">
<title>L31</title>
<path fill="#e1f1f3" stroke="#0b7285" d="M876,-140C876,-140 774,-140 774,-140 768,-140 762,-134 762,-128 762,-128 762,-116 762,-116 762,-110 768,-104 774,-104 774,-104 876,-104 876,-104 882,-104 888,-110 888,-116 888,-116 888,-128 888,-128 888,-134 882,-140 876,-140"/>
<text text-anchor="middle" x="825" y="-119.2" font-family="Helvetica,sans-Serif" font-size="11.00" fill="#1f2933">Circular correlation</text>
</g>
<!-- g7&#45;&gt;L31 -->
<g id="edge39" class="edge">
<title>g7&#45;&gt;L31</title>
<path fill="none" stroke="#0b7285" d="M482.76,-180.97C501.02,-176.8 520.4,-172.57 538.5,-169 612.14,-154.47 697.08,-140.89 755.05,-132.1"/>
<polygon fill="#0b7285" stroke="#0b7285" points="755.42,-134.52 761.98,-131.05 754.69,-129.67 755.42,-134.52"/>
<text text-anchor="middle" x="604.5" y="-171.8" font-family="Helvetica,sans-Serif" font-size="9.00">angular association</text>
</g>
<!-- L32 -->
<g id="node42" class="node">
<title>L32</title>
<path fill="#fbe6ee" stroke="#c2255c" d="M886,-88C886,-88 764,-88 764,-88 758,-88 752,-82 752,-76 752,-76 752,-64 752,-64 752,-58 758,-52 764,-52 764,-52 886,-52 886,-52 892,-52 898,-58 898,-64 898,-64 898,-76 898,-76 898,-82 892,-88 886,-88"/>
<text text-anchor="middle" x="825" y="-73.2" font-family="Helvetica,sans-Serif" font-size="11.00" fill="#1f2933">Cohen&#39;s / Fleiss&#39; kappa</text>
<text text-anchor="middle" x="825" y="-61.2" font-family="Helvetica,sans-Serif" font-size="11.00" fill="#1f2933">Krippendorff&#39;s alpha</text>
</g>
<!-- g8&#45;&gt;L32 -->
<g id="edge41" class="edge">
<title>g8&#45;&gt;L32</title>
<path fill="none" stroke="#c2255c" d="M457.19,-70C529.8,-70 660.49,-70 744.68,-70"/>
<polygon fill="#c2255c" stroke="#c2255c" points="744.92,-72.45 751.92,-70 744.92,-67.55 744.92,-72.45"/>
<text text-anchor="middle" x="604.5" y="-72.8" font-family="Helvetica,sans-Serif" font-size="9.00">categorical labels</text>
</g>
<!-- L33 -->
<g id="node43" class="node">
<title>L33</title>
<path fill="#fbe6ee" stroke="#c2255c" d="M874.5,-36C874.5,-36 775.5,-36 775.5,-36 769.5,-36 763.5,-30 763.5,-24 763.5,-24 763.5,-12 763.5,-12 763.5,-6 769.5,0 775.5,0 775.5,0 874.5,0 874.5,0 880.5,0 886.5,-6 886.5,-12 886.5,-12 886.5,-24 886.5,-24 886.5,-30 880.5,-36 874.5,-36"/>
<text text-anchor="middle" x="825" y="-15.2" font-family="Helvetica,sans-Serif" font-size="11.00" fill="#1f2933">ICC / Bland&#45;Altman</text>
</g>
<!-- g8&#45;&gt;L33 -->
<g id="edge42" class="edge">
<title>g8&#45;&gt;L33</title>
<path fill="none" stroke="#c2255c" d="M457.19,-63.41C533.23,-54 672.98,-36.7 756.3,-26.38"/>
<polygon fill="#c2255c" stroke="#c2255c" points="756.79,-28.79 763.44,-25.5 756.19,-23.93 756.79,-28.79"/>
<text text-anchor="middle" x="604.5" y="-55.8" font-family="Helvetica,sans-Serif" font-size="9.00">continuous ratings</text>
</g>
</g>
</svg>
