<?xml version="1.0" encoding="UTF-8"?>
<svg xmlns="http://www.w3.org/2000/svg" xmlns:xlink="http://www.w3.org/1999/xlink" version="1.1" viewBox="0 0 101 186">
  <defs>
    <style>
      .cls-1, .cls-2, .cls-3 {
        stroke-width: 0px;
      }

      .cls-1, .cls-4 {
        fill: #494383;
      }

      .cls-5 {
        font-size: 4.42px;
      }

      .cls-2 {
        fill: #140f4b;
      }

      .cls-6 {
        clip-path: url(#clippath);
      }

      .cls-3 {
        fill: none;
      }

      .cls-7 {
        fill: #e6e6e6;
      }

      .cls-7, .cls-4, .cls-8, .cls-9, .cls-10 {
        font-weight: 700;
      }

      .cls-7, .cls-8, .cls-10 {
        font-size: 8.84px;
      }

      .cls-7, .cls-10 {
        font-family: MyriadPro-Bold, 'Myriad Pro';
      }

      .cls-11 {
        fill: #000;
        font-family: Aptos, Aptos;
        font-size: 12px;
      }

      .cls-12 {
        clip-path: url(#clippath-1);
      }

      .cls-13 {
        letter-spacing: 0em;
      }

      .cls-14 {
        font-size: 3.87px;
      }

      .cls-4 {
        font-family: AmericanTypewriter-CondensedBold, 'American Typewriter';
        font-size: 6px;
      }

      .cls-15 {
        font-size: 5.53px;
      }

      .cls-8, .cls-9 {
        font-family: AmericanTypewriter-Bold, 'American Typewriter';
      }

      .cls-8, .cls-10 {
        fill: #002645;
      }

      .cls-9 {
        fill: #332332;
      }

      .cls-16 {
        letter-spacing: -.01em;
      }
    </style>
    <clipPath id="clippath">
      <rect class="cls-3" x="-30" y="262" width="468" height="29"/>
    </clipPath>
    <clipPath id="clippath-1">
      <rect class="cls-3" x="-30" y="262" width="468" height="29"/>
    </clipPath>
  </defs>
  <g id="Layer_1" data-name="Layer 1">
    <text></text>
    <g class="cls-6">
      <text class="cls-11" transform="translate(172.82 274)"><tspan x="0" y="0">12&quot;3456&quot;</tspan><tspan class="cls-13" x="45.02" y="0">47</tspan><tspan x="57.12" y="0">8</tspan><tspan class="cls-16" x="63.27" y="0">9</tspan><tspan x="69.27" y="0">:;8&lt;</tspan></text>
    </g>
    <text class="cls-11" transform="translate(253.82 274)"><tspan x="0" y="0">&quot;</tspan></text>
    <g class="cls-12">
      <text class="cls-11" transform="translate(172.82 274)"><tspan x="0" y="0">12&quot;3456&quot;</tspan><tspan class="cls-13" x="45.02" y="0">47</tspan><tspan x="57.12" y="0">8</tspan><tspan class="cls-16" x="63.27" y="0">9</tspan><tspan x="69.27" y="0">:;8&lt;</tspan></text>
    </g>
    <text class="cls-11" transform="translate(253.82 274)"><tspan x="0" y="0">&quot;</tspan></text>
    <g>
      <text class="cls-10" transform="translate(22.8 58.63) scale(.79 1)"><tspan x="0" y="0">A REHAUL IN THE </tspan><tspan x="-6.82" y="10.61">EDUCATION SYSTEM</tspan></text>
      <g>
        <g>
          <polygon class="cls-1" points="24.64 64.63 27.04 54.67 31.57 54.67 34 64.63 24.64 64.63"/>
          <path class="cls-1" d="M37.03,64.63h-5.54v-9.51l1.59-.33c.52-.11,1.16-.17,1.82-.17.47,0,1.88,0,2.94,1.06.47.47,1.01,1.31,1.01,2.66,0,.6-.13,1.17-.38,1.67.07.22.11.4.13.52l.12.57c.07.36.14.69.19.86l1.08,2.73-2.96-.07Z"/>
          <polygon class="cls-1" points="35.62 64.63 35.62 54.67 42.51 54.67 42.51 59.53 42.61 59.53 42.61 64.63 35.62 64.63"/>
          <rect class="cls-1" x="39.33" y="54.67" width="7.87" height="9.96"/>
          <polygon class="cls-1" points="43.25 64.63 45.64 54.67 50.18 54.67 52.61 64.63 43.25 64.63"/>
          <path class="cls-1" d="M52.32,64.73c-1.88,0-3.88-1.24-3.88-4.73v-5.33h7.83v5.35c0,3.48-2.13,4.72-3.96,4.72Z"/>
          <polygon class="cls-1" points="53.19 64.63 53.19 54.67 58.26 54.67 58.26 59.5 60.12 59.5 60.12 64.63 53.19 64.63"/>
          <rect class="cls-1" x="58.16" y="54.67" width="5.06" height="9.96"/>
          <rect class="cls-1" x="60.14" y="54.67" width="7.88" height="9.96"/>
          <polygon class="cls-1" points="66.98 64.63 66.98 59.8 65.72 59.8 65.72 54.67 73.32 54.67 73.32 59.8 72.04 59.8 72.04 64.63 66.98 64.63"/>
          <rect class="cls-1" x="69.89" y="54.67" width="7.87" height="9.96"/>
          <polygon class="cls-1" points="74.68 64.63 74.68 54.67 81.58 54.67 81.58 59.53 81.67 59.53 81.67 64.63 74.68 64.63"/>
          <polygon class="cls-1" points="20.25 75.25 20.25 65.28 27.14 65.28 27.14 70.14 27.24 70.14 27.24 75.25 20.25 75.25"/>
          <path class="cls-1" d="M27.17,75.31c-.56,0-1.07-.04-1.53-.12l-1.67-.28v-9.19l1.6-.33c.53-.11,1.16-.16,1.83-.16,1.39,0,2.47.39,3.3,1.19.64.6,1.41,1.74,1.41,3.69s-.71,3.13-1.31,3.78c-.61.65-1.73,1.41-3.63,1.41Z"/>
          <path class="cls-1" d="M32.68,75.34c-1.88,0-3.88-1.24-3.88-4.73v-5.33h7.83v5.35c0,3.48-2.13,4.72-3.96,4.72Z"/>
          <path class="cls-1" d="M37.79,75.33c-2.62,0-4.46-2.05-4.46-4.98,0-3.39,2.29-5.17,4.56-5.17.86,0,1.68.22,2.26.6l1.12.74-.71,3.51.24,1.69.35,2.34-1.1.7c-.57.36-1.4.57-2.27.57Z"/>
          <polygon class="cls-1" points="36.88 75.25 39.28 65.28 43.82 65.28 46.25 75.25 36.88 75.25"/>
          <polygon class="cls-1" points="42.66 75.25 42.66 70.41 41.4 70.41 41.4 65.28 49 65.28 49 70.41 47.72 70.41 47.72 75.25 42.66 75.25"/>
          <rect class="cls-1" x="45.56" y="65.28" width="5.06" height="9.96"/>
          <path class="cls-1" d="M51.54,75.34c-2.44,0-4.21-2.12-4.21-5.04s1.8-5.12,4.28-5.12,4.23,2.11,4.23,5.02-1.77,5.14-4.3,5.14Z"/>
          <rect class="cls-1" x="52.54" y="65.28" width="7.88" height="9.96"/>
          <path class="cls-1" d="M61.89,75.33c-.89,0-1.84-.28-2.48-.73l-1.06-.74.63-3.26c-.23-.49-.36-1.04-.36-1.63,0-2.16,1.62-3.8,3.77-3.8.8,0,1.54.19,2.19.57l1.27.73-.64,2.94c.44.7.56,1.45.56,2.07,0,2.23-1.64,3.85-3.89,3.85Z"/>
          <polygon class="cls-1" points="63.59 75.25 63.59 71.21 61.09 65.28 71.27 65.28 68.64 71.18 68.64 75.25 63.59 75.25"/>
          <path class="cls-1" d="M69.64,75.33c-.89,0-1.84-.28-2.48-.73l-1.06-.74.63-3.26c-.23-.49-.36-1.04-.36-1.63,0-2.16,1.62-3.8,3.77-3.8.8,0,1.54.19,2.19.57l1.27.73-.64,2.94c.44.7.56,1.45.56,2.07,0,2.23-1.64,3.85-3.89,3.85Z"/>
          <polygon class="cls-1" points="71.16 75.25 71.16 70.41 69.9 70.41 69.9 65.28 77.5 65.28 77.5 70.41 76.22 70.41 76.22 75.25 71.16 75.25"/>
          <polygon class="cls-1" points="74.07 75.25 74.07 65.28 80.96 65.28 80.96 70.14 81.06 70.14 81.06 75.25 74.07 75.25"/>
          <polygon class="cls-1" points="77.57 75.25 78.08 65.28 86.51 65.28 86.94 75.25 77.57 75.25"/>
        </g>
        <g>
          <polygon class="cls-1" points="23.64 63.63 26.04 53.67 30.57 53.67 33 63.63 23.64 63.63"/>
          <path class="cls-1" d="M36.03,63.63h-5.54v-9.51l1.59-.33c.52-.11,1.16-.17,1.82-.17.47,0,1.88,0,2.94,1.06.47.47,1.01,1.31,1.01,2.66,0,.6-.13,1.17-.38,1.67.07.22.11.4.13.52l.12.57c.07.36.14.69.19.86l1.08,2.73-2.96-.07Z"/>
          <polygon class="cls-1" points="34.62 63.63 34.62 53.67 41.51 53.67 41.51 58.53 41.61 58.53 41.61 63.63 34.62 63.63"/>
          <rect class="cls-1" x="38.33" y="53.67" width="7.87" height="9.96"/>
          <polygon class="cls-1" points="42.25 63.63 44.64 53.67 49.18 53.67 51.61 63.63 42.25 63.63"/>
          <path class="cls-1" d="M51.32,63.73c-1.88,0-3.88-1.24-3.88-4.73v-5.33h7.83v5.35c0,3.48-2.13,4.72-3.96,4.72Z"/>
          <polygon class="cls-1" points="52.19 63.63 52.19 53.67 57.26 53.67 57.26 58.5 59.12 58.5 59.12 63.63 52.19 63.63"/>
          <rect class="cls-1" x="57.16" y="53.67" width="5.06" height="9.96"/>
          <rect class="cls-1" x="59.14" y="53.67" width="7.88" height="9.96"/>
          <polygon class="cls-1" points="65.98 63.63 65.98 58.8 64.72 58.8 64.72 53.67 72.32 53.67 72.32 58.8 71.04 58.8 71.04 63.63 65.98 63.63"/>
          <rect class="cls-1" x="68.89" y="53.67" width="7.87" height="9.96"/>
          <polygon class="cls-1" points="73.68 63.63 73.68 53.67 80.58 53.67 80.58 58.53 80.67 58.53 80.67 63.63 73.68 63.63"/>
          <polygon class="cls-1" points="19.25 74.25 19.25 64.28 26.14 64.28 26.14 69.14 26.24 69.14 26.24 74.25 19.25 74.25"/>
          <path class="cls-1" d="M26.17,74.31c-.56,0-1.07-.04-1.53-.12l-1.67-.28v-9.19l1.6-.33c.53-.11,1.16-.16,1.83-.16,1.39,0,2.47.39,3.3,1.19.64.6,1.41,1.74,1.41,3.69s-.71,3.13-1.31,3.78c-.61.65-1.73,1.41-3.63,1.41Z"/>
          <path class="cls-1" d="M31.68,74.34c-1.88,0-3.88-1.24-3.88-4.73v-5.33h7.83v5.35c0,3.48-2.13,4.72-3.96,4.72Z"/>
          <path class="cls-1" d="M36.79,74.33c-2.62,0-4.46-2.05-4.46-4.98,0-3.39,2.29-5.17,4.56-5.17.86,0,1.68.22,2.26.6l1.12.74-.71,3.51.24,1.69.35,2.34-1.1.7c-.57.36-1.4.57-2.27.57Z"/>
          <polygon class="cls-1" points="35.88 74.25 38.28 64.28 42.82 64.28 45.25 74.25 35.88 74.25"/>
          <polygon class="cls-1" points="41.66 74.25 41.66 69.41 40.4 69.41 40.4 64.28 48 64.28 48 69.41 46.72 69.41 46.72 74.25 41.66 74.25"/>
          <rect class="cls-1" x="44.56" y="64.28" width="5.06" height="9.96"/>
          <path class="cls-1" d="M50.54,74.34c-2.44,0-4.21-2.12-4.21-5.04s1.8-5.12,4.28-5.12,4.23,2.11,4.23,5.02-1.77,5.14-4.3,5.14Z"/>
          <rect class="cls-1" x="51.54" y="64.28" width="7.88" height="9.96"/>
          <path class="cls-1" d="M60.89,74.33c-.89,0-1.84-.28-2.48-.73l-1.06-.74.63-3.26c-.23-.49-.36-1.04-.36-1.63,0-2.16,1.62-3.8,3.77-3.8.8,0,1.54.19,2.19.57l1.27.73-.64,2.94c.44.7.56,1.45.56,2.07,0,2.23-1.64,3.85-3.89,3.85Z"/>
          <polygon class="cls-1" points="62.59 74.25 62.59 70.21 60.09 64.28 70.27 64.28 67.64 70.18 67.64 74.25 62.59 74.25"/>
          <path class="cls-1" d="M68.64,74.33c-.89,0-1.84-.28-2.48-.73l-1.06-.74.63-3.26c-.23-.49-.36-1.04-.36-1.63,0-2.16,1.62-3.8,3.77-3.8.8,0,1.54.19,2.19.57l1.27.73-.64,2.94c.44.7.56,1.45.56,2.07,0,2.23-1.64,3.85-3.89,3.85Z"/>
          <polygon class="cls-1" points="70.16 74.25 70.16 69.41 68.9 69.41 68.9 64.28 76.5 64.28 76.5 69.41 75.22 69.41 75.22 74.25 70.16 74.25"/>
          <polygon class="cls-1" points="73.07 74.25 73.07 64.28 79.96 64.28 79.96 69.14 80.06 69.14 80.06 74.25 73.07 74.25"/>
          <polygon class="cls-1" points="76.57 74.25 77.08 64.28 85.51 64.28 85.94 74.25 76.57 74.25"/>
        </g>
        <g>
          <polygon class="cls-1" points="22.64 62.63 25.04 52.67 29.57 52.67 32 62.63 22.64 62.63"/>
          <path class="cls-1" d="M35.03,62.63h-5.54v-9.51l1.59-.33c.52-.11,1.16-.17,1.82-.17.47,0,1.88,0,2.94,1.06.47.47,1.01,1.31,1.01,2.66,0,.6-.13,1.17-.38,1.67.07.22.11.4.13.52l.12.57c.07.36.14.69.19.86l1.08,2.73-2.96-.07Z"/>
          <polygon class="cls-1" points="33.62 62.63 33.62 52.67 40.51 52.67 40.51 57.53 40.61 57.53 40.61 62.63 33.62 62.63"/>
          <rect class="cls-1" x="37.33" y="52.67" width="7.87" height="9.96"/>
          <polygon class="cls-1" points="41.25 62.63 43.64 52.67 48.18 52.67 50.61 62.63 41.25 62.63"/>
          <path class="cls-1" d="M50.32,62.73c-1.88,0-3.88-1.24-3.88-4.73v-5.33h7.83v5.35c0,3.48-2.13,4.72-3.96,4.72Z"/>
          <polygon class="cls-1" points="51.19 62.63 51.19 52.67 56.26 52.67 56.26 57.5 58.12 57.5 58.12 62.63 51.19 62.63"/>
          <rect class="cls-1" x="56.16" y="52.67" width="5.06" height="9.96"/>
          <rect class="cls-1" x="58.14" y="52.67" width="7.88" height="9.96"/>
          <polygon class="cls-1" points="64.98 62.63 64.98 57.8 63.72 57.8 63.72 52.67 71.32 52.67 71.32 57.8 70.04 57.8 70.04 62.63 64.98 62.63"/>
          <rect class="cls-1" x="67.89" y="52.67" width="7.87" height="9.96"/>
          <polygon class="cls-1" points="72.68 62.63 72.68 52.67 79.58 52.67 79.58 57.53 79.67 57.53 79.67 62.63 72.68 62.63"/>
          <polygon class="cls-1" points="18.25 73.25 18.25 63.28 25.14 63.28 25.14 68.14 25.24 68.14 25.24 73.25 18.25 73.25"/>
          <path class="cls-1" d="M25.17,73.31c-.56,0-1.07-.04-1.53-.12l-1.67-.28v-9.19l1.6-.33c.53-.11,1.16-.16,1.83-.16,1.39,0,2.47.39,3.3,1.19.64.6,1.41,1.74,1.41,3.69s-.71,3.13-1.31,3.78c-.61.65-1.73,1.41-3.63,1.41Z"/>
          <path class="cls-1" d="M30.68,73.34c-1.88,0-3.88-1.24-3.88-4.73v-5.33h7.83v5.35c0,3.48-2.13,4.72-3.96,4.72Z"/>
          <path class="cls-1" d="M35.79,73.33c-2.62,0-4.46-2.05-4.46-4.98,0-3.39,2.29-5.17,4.56-5.17.86,0,1.68.22,2.26.6l1.12.74-.71,3.51.24,1.69.35,2.34-1.1.7c-.57.36-1.4.57-2.27.57Z"/>
          <polygon class="cls-1" points="34.88 73.25 37.28 63.28 41.82 63.28 44.25 73.25 34.88 73.25"/>
          <polygon class="cls-1" points="40.66 73.25 40.66 68.41 39.4 68.41 39.4 63.28 47 63.28 47 68.41 45.72 68.41 45.72 73.25 40.66 73.25"/>
          <rect class="cls-1" x="43.56" y="63.28" width="5.06" height="9.96"/>
          <path class="cls-1" d="M49.54,73.34c-2.44,0-4.21-2.12-4.21-5.04s1.8-5.12,4.28-5.12,4.23,2.11,4.23,5.02-1.77,5.14-4.3,5.14Z"/>
          <rect class="cls-1" x="50.54" y="63.28" width="7.88" height="9.96"/>
          <path class="cls-1" d="M59.89,73.33c-.89,0-1.84-.28-2.48-.73l-1.06-.74.63-3.26c-.23-.49-.36-1.04-.36-1.63,0-2.16,1.62-3.8,3.77-3.8.8,0,1.54.19,2.19.57l1.27.73-.64,2.94c.44.7.56,1.45.56,2.07,0,2.23-1.64,3.85-3.89,3.85Z"/>
          <polygon class="cls-1" points="61.59 73.25 61.59 69.21 59.09 63.28 69.27 63.28 66.64 69.18 66.64 73.25 61.59 73.25"/>
          <path class="cls-1" d="M67.64,73.33c-.89,0-1.84-.28-2.48-.73l-1.06-.74.63-3.26c-.23-.49-.36-1.04-.36-1.63,0-2.16,1.62-3.8,3.77-3.8.8,0,1.54.19,2.19.57l1.27.73-.64,2.94c.44.7.56,1.45.56,2.07,0,2.23-1.64,3.85-3.89,3.85Z"/>
          <polygon class="cls-1" points="69.16 73.25 69.16 68.41 67.9 68.41 67.9 63.28 75.5 63.28 75.5 68.41 74.22 68.41 74.22 73.25 69.16 73.25"/>
          <polygon class="cls-1" points="72.07 73.25 72.07 63.28 78.96 63.28 78.96 68.14 79.06 68.14 79.06 73.25 72.07 73.25"/>
          <polygon class="cls-1" points="75.57 73.25 76.08 63.28 84.51 63.28 84.94 73.25 75.57 73.25"/>
        </g>
        <g>
          <polygon class="cls-1" points="21.64 61.63 24.04 51.67 28.57 51.67 31 61.63 21.64 61.63"/>
          <path class="cls-1" d="M34.03,61.63h-5.54v-9.51l1.59-.33c.52-.11,1.16-.17,1.82-.17.47,0,1.88,0,2.94,1.06.47.47,1.01,1.31,1.01,2.66,0,.6-.13,1.17-.38,1.67.07.22.11.4.13.52l.12.57c.07.36.14.69.19.86l1.08,2.73-2.96-.07Z"/>
          <polygon class="cls-1" points="32.62 61.63 32.62 51.67 39.51 51.67 39.51 56.53 39.61 56.53 39.61 61.63 32.62 61.63"/>
          <rect class="cls-1" x="36.33" y="51.67" width="7.87" height="9.96"/>
          <polygon class="cls-1" points="40.25 61.63 42.64 51.67 47.18 51.67 49.61 61.63 40.25 61.63"/>
          <path class="cls-1" d="M49.32,61.73c-1.88,0-3.88-1.24-3.88-4.73v-5.33h7.83v5.35c0,3.48-2.13,4.72-3.96,4.72Z"/>
          <polygon class="cls-1" points="50.19 61.63 50.19 51.67 55.26 51.67 55.26 56.5 57.12 56.5 57.12 61.63 50.19 61.63"/>
          <rect class="cls-1" x="55.16" y="51.67" width="5.06" height="9.96"/>
          <rect class="cls-1" x="57.14" y="51.67" width="7.88" height="9.96"/>
          <polygon class="cls-1" points="63.98 61.63 63.98 56.8 62.72 56.8 62.72 51.67 70.32 51.67 70.32 56.8 69.04 56.8 69.04 61.63 63.98 61.63"/>
          <rect class="cls-1" x="66.89" y="51.67" width="7.87" height="9.96"/>
          <polygon class="cls-1" points="71.68 61.63 71.68 51.67 78.58 51.67 78.58 56.53 78.67 56.53 78.67 61.63 71.68 61.63"/>
          <polygon class="cls-1" points="17.25 72.25 17.25 62.28 24.14 62.28 24.14 67.14 24.24 67.14 24.24 72.25 17.25 72.25"/>
          <path class="cls-1" d="M24.17,72.31c-.56,0-1.07-.04-1.53-.12l-1.67-.28v-9.19l1.6-.33c.53-.11,1.16-.16,1.83-.16,1.39,0,2.47.39,3.3,1.19.64.6,1.41,1.74,1.41,3.69s-.71,3.13-1.31,3.78c-.61.65-1.73,1.41-3.63,1.41Z"/>
          <path class="cls-1" d="M29.68,72.34c-1.88,0-3.88-1.24-3.88-4.73v-5.33h7.83v5.35c0,3.48-2.13,4.72-3.96,4.72Z"/>
          <path class="cls-1" d="M34.79,72.33c-2.62,0-4.46-2.05-4.46-4.98,0-3.39,2.29-5.17,4.56-5.17.86,0,1.68.22,2.26.6l1.12.74-.71,3.51.24,1.69.35,2.34-1.1.7c-.57.36-1.4.57-2.27.57Z"/>
          <polygon class="cls-1" points="33.88 72.25 36.28 62.28 40.82 62.28 43.25 72.25 33.88 72.25"/>
          <polygon class="cls-1" points="39.66 72.25 39.66 67.41 38.4 67.41 38.4 62.28 46 62.28 46 67.41 44.72 67.41 44.72 72.25 39.66 72.25"/>
          <rect class="cls-1" x="42.56" y="62.28" width="5.06" height="9.96"/>
          <path class="cls-1" d="M48.54,72.34c-2.44,0-4.21-2.12-4.21-5.04s1.8-5.12,4.28-5.12,4.23,2.11,4.23,5.02-1.77,5.14-4.3,5.14Z"/>
          <rect class="cls-1" x="49.54" y="62.28" width="7.88" height="9.96"/>
          <path class="cls-1" d="M58.89,72.33c-.89,0-1.84-.28-2.48-.73l-1.06-.74.63-3.26c-.23-.49-.36-1.04-.36-1.63,0-2.16,1.62-3.8,3.77-3.8.8,0,1.54.19,2.19.57l1.27.73-.64,2.94c.44.7.56,1.45.56,2.07,0,2.23-1.64,3.85-3.89,3.85Z"/>
          <polygon class="cls-1" points="60.59 72.25 60.59 68.21 58.09 62.28 68.27 62.28 65.64 68.18 65.64 72.25 60.59 72.25"/>
          <path class="cls-1" d="M66.64,72.33c-.89,0-1.84-.28-2.48-.73l-1.06-.74.63-3.26c-.23-.49-.36-1.04-.36-1.63,0-2.16,1.62-3.8,3.77-3.8.8,0,1.54.19,2.19.57l1.27.73-.64,2.94c.44.7.56,1.45.56,2.07,0,2.23-1.64,3.85-3.89,3.85Z"/>
          <polygon class="cls-1" points="68.16 72.25 68.16 67.41 66.9 67.41 66.9 62.28 74.5 62.28 74.5 67.41 73.22 67.41 73.22 72.25 68.16 72.25"/>
          <polygon class="cls-1" points="71.07 72.25 71.07 62.28 77.96 62.28 77.96 67.14 78.06 67.14 78.06 72.25 71.07 72.25"/>
          <polygon class="cls-1" points="74.57 72.25 75.08 62.28 83.51 62.28 83.94 72.25 74.57 72.25"/>
        </g>
      </g>
      <g>
        <polygon class="cls-2" points="21.64 61.63 24.04 51.67 28.57 51.67 31 61.63 21.64 61.63"/>
        <path class="cls-2" d="M34.03,61.63h-5.54v-9.51l1.59-.33c.52-.11,1.16-.17,1.82-.17.47,0,1.88,0,2.94,1.06.47.47,1.01,1.31,1.01,2.66,0,.6-.13,1.17-.38,1.67.07.22.11.4.13.52l.12.57c.07.36.14.69.19.86l1.08,2.73-2.96-.07Z"/>
        <polygon class="cls-2" points="32.62 61.63 32.62 51.67 39.51 51.67 39.51 56.53 39.61 56.53 39.61 61.63 32.62 61.63"/>
        <rect class="cls-2" x="36.33" y="51.67" width="7.87" height="9.96"/>
        <polygon class="cls-2" points="40.25 61.63 42.64 51.67 47.18 51.67 49.61 61.63 40.25 61.63"/>
        <path class="cls-2" d="M49.32,61.73c-1.88,0-3.88-1.24-3.88-4.73v-5.33h7.83v5.35c0,3.48-2.13,4.72-3.96,4.72Z"/>
        <polygon class="cls-2" points="50.19 61.63 50.19 51.67 55.26 51.67 55.26 56.5 57.12 56.5 57.12 61.63 50.19 61.63"/>
        <rect class="cls-2" x="55.16" y="51.67" width="5.06" height="9.96"/>
        <rect class="cls-2" x="57.14" y="51.67" width="7.88" height="9.96"/>
        <polygon class="cls-2" points="63.98 61.63 63.98 56.8 62.72 56.8 62.72 51.67 70.32 51.67 70.32 56.8 69.04 56.8 69.04 61.63 63.98 61.63"/>
        <rect class="cls-2" x="66.89" y="51.67" width="7.87" height="9.96"/>
        <polygon class="cls-2" points="71.68 61.63 71.68 51.67 78.58 51.67 78.58 56.53 78.67 56.53 78.67 61.63 71.68 61.63"/>
        <polygon class="cls-2" points="17.25 72.25 17.25 62.28 24.14 62.28 24.14 67.14 24.24 67.14 24.24 72.25 17.25 72.25"/>
        <path class="cls-2" d="M24.17,72.31c-.56,0-1.07-.04-1.53-.12l-1.67-.28v-9.19l1.6-.33c.53-.11,1.16-.16,1.83-.16,1.39,0,2.47.39,3.3,1.19.64.6,1.41,1.74,1.41,3.69s-.71,3.13-1.31,3.78c-.61.65-1.73,1.41-3.63,1.41Z"/>
        <path class="cls-2" d="M29.68,72.34c-1.88,0-3.88-1.24-3.88-4.73v-5.33h7.83v5.35c0,3.48-2.13,4.72-3.96,4.72Z"/>
        <path class="cls-2" d="M34.79,72.33c-2.62,0-4.46-2.05-4.46-4.98,0-3.39,2.29-5.17,4.56-5.17.86,0,1.68.22,2.26.6l1.12.74-.71,3.51.24,1.69.35,2.34-1.1.7c-.57.36-1.4.57-2.27.57Z"/>
        <polygon class="cls-2" points="33.88 72.25 36.28 62.28 40.82 62.28 43.25 72.25 33.88 72.25"/>
        <polygon class="cls-2" points="39.66 72.25 39.66 67.41 38.4 67.41 38.4 62.28 46 62.28 46 67.41 44.72 67.41 44.72 72.25 39.66 72.25"/>
        <rect class="cls-2" x="42.56" y="62.28" width="5.06" height="9.96"/>
        <path class="cls-2" d="M48.54,72.34c-2.44,0-4.21-2.12-4.21-5.04s1.8-5.12,4.28-5.12,4.23,2.11,4.23,5.02-1.77,5.14-4.3,5.14Z"/>
        <rect class="cls-2" x="49.54" y="62.28" width="7.88" height="9.96"/>
        <path class="cls-2" d="M58.89,72.33c-.89,0-1.84-.28-2.48-.73l-1.06-.74.63-3.26c-.23-.49-.36-1.04-.36-1.63,0-2.16,1.62-3.8,3.77-3.8.8,0,1.54.19,2.19.57l1.27.73-.64,2.94c.44.7.56,1.45.56,2.07,0,2.23-1.64,3.85-3.89,3.85Z"/>
        <polygon class="cls-2" points="60.59 72.25 60.59 68.21 58.09 62.28 68.27 62.28 65.64 68.18 65.64 72.25 60.59 72.25"/>
        <path class="cls-2" d="M66.64,72.33c-.89,0-1.84-.28-2.48-.73l-1.06-.74.63-3.26c-.23-.49-.36-1.04-.36-1.63,0-2.16,1.62-3.8,3.77-3.8.8,0,1.54.19,2.19.57l1.27.73-.64,2.94c.44.7.56,1.45.56,2.07,0,2.23-1.64,3.85-3.89,3.85Z"/>
        <polygon class="cls-2" points="68.16 72.25 68.16 67.41 66.9 67.41 66.9 62.28 74.5 62.28 74.5 67.41 73.22 67.41 73.22 72.25 68.16 72.25"/>
        <polygon class="cls-2" points="71.07 72.25 71.07 62.28 77.96 62.28 77.96 67.14 78.06 67.14 78.06 72.25 71.07 72.25"/>
        <polygon class="cls-2" points="74.57 72.25 75.08 62.28 83.51 62.28 83.94 72.25 74.57 72.25"/>
      </g>
      <text class="cls-7" transform="translate(22.8 58.63) scale(.79 1)"><tspan x="0" y="0">A REHAUL IN THE </tspan><tspan x="-6.82" y="10.61">EDUCATION SYSTEM</tspan></text>
    </g>
    <text class="cls-11" transform="translate(253.82 274)"><tspan x="0" y="0">&quot;</tspan></text>
    <text class="cls-8" transform="translate(15.4 82.22) scale(.79 1)"><tspan x="0" y="0">is LONG OVERDUE!</tspan></text>
  </g>
  <g id="Layer_3" data-name="Layer 3">
    <text class="cls-9" transform="translate(17.51 26.12) scale(.79 1)"><tspan class="cls-14" x="0" y="0">In typical course-based education systems,</tspan><tspan class="cls-15" x="83.33" y="0"> </tspan><tspan class="cls-5" x="1.82" y="6.63">students learn what teachers teach,</tspan><tspan class="cls-15" x="81.51" y="6.63"> </tspan><tspan class="cls-15"><tspan x=".42" y="13.27">NOT what they want to learn.</tspan></tspan></text>
    <text/>
    <text class="cls-4" transform="translate(22.29 116)"><tspan x="0" y="0">Tech and AI can replace </tspan><tspan x="-4.87" y="7.2">repetitive tasks of teachers, </tspan><tspan x="7.02" y="14.4">but NOT teachers. </tspan><tspan x=".69" y="28.8">We can use tech to help </tspan><tspan x="-4.61" y="36">teachers do what they love - </tspan><tspan x="18.99" y="43.2">TEACH!</tspan></text>
  </g>
</svg>